<svg width="50" height="50" viewBox="0 0 50 50" fill="none" xmlns="http://www.w3.org/2000/svg">
<rect x="0.5" y="0.5" width="49" height="49" rx="9.5" stroke="#30FF8D"/>
<path d="M25 10C16.6923 10 10 16.6923 10 25C10 33.3077 16.6923 40 25 40C33.3077 40 40 33.3077 40 25C40 23.3846 39.7831 21.7762 39.2062 20.2762L37.3323 22.1154C37.5631 23.0385 37.6935 23.9615 37.6935 25C37.6935 32.0385 32.0396 37.6923 25.0012 37.6923C17.9627 37.6923 12.3077 32.0385 12.3077 25C12.3077 17.9615 17.9615 12.3077 25 12.3077C28.4615 12.3077 31.57 13.6854 33.7623 15.8777L35.3846 14.2554C32.7308 11.6015 29.0385 10 25 10ZM38.0154 14.9385L25 27.9573L20.0615 23.0188L18.4 24.6769L24.1692 30.4462L25 31.2377L25.8308 30.445L39.6769 16.5988L38.0154 14.9373V14.9385Z" fill="#30FF8D"/>
</svg>
