<svg width="39" height="39" viewBox="0 0 39 39" fill="none" xmlns="http://www.w3.org/2000/svg">
<path fill-rule="evenodd" clip-rule="evenodd" d="M20.4652 37.6496L20.4457 37.6528L20.3303 37.7097L20.2978 37.7162L20.275 37.7097L20.1597 37.6512C20.1423 37.6469 20.1293 37.6501 20.1207 37.661L20.1142 37.6772L20.0865 38.3727L20.0947 38.4052L20.1109 38.4263L20.2799 38.5466L20.3043 38.5531L20.3238 38.5466L20.4928 38.4263L20.5123 38.4003L20.5188 38.3727L20.4912 37.6788C20.4868 37.6615 20.4782 37.6518 20.4652 37.6496ZM20.8942 37.466L20.8714 37.4692L20.5724 37.6203L20.5562 37.6366L20.5513 37.6545L20.5805 38.3532L20.5887 38.3727L20.6017 38.3857L20.9283 38.5352C20.9489 38.5406 20.9646 38.5363 20.9754 38.5222L20.9819 38.4995L20.9267 37.5017C20.9212 37.4811 20.9104 37.4692 20.8942 37.466ZM19.7323 37.4692C19.7251 37.4649 19.7166 37.4635 19.7084 37.4653C19.7002 37.4671 19.6931 37.472 19.6884 37.479L19.6787 37.5017L19.6234 38.4995C19.6245 38.519 19.6337 38.532 19.651 38.5385L19.6754 38.5352L20.002 38.3841L20.0183 38.3711L20.0232 38.3532L20.0524 37.6545L20.0475 37.635L20.0313 37.6187L19.7323 37.4692Z" fill="white"/>
<path fill-rule="evenodd" clip-rule="evenodd" d="M8.12498 14.625C8.12498 11.6082 9.32341 8.71489 11.4566 6.58166C13.5899 4.44843 16.4831 3.25 19.5 3.25C22.5168 3.25 25.4101 4.44843 27.5433 6.58166C29.6765 8.71489 30.875 11.6082 30.875 14.625V20.7415L33.8357 26.663C33.972 26.9355 34.0364 27.2384 34.0227 27.5428C34.009 27.8472 33.9177 28.1431 33.7575 28.4023C33.5973 28.6615 33.3735 28.8755 33.1073 29.0238C32.8411 29.1722 32.5415 29.25 32.2367 29.25H25.7952C25.4338 30.6446 24.6194 31.8798 23.48 32.7615C22.3406 33.6432 20.9407 34.1217 19.5 34.1217C18.0593 34.1217 16.6593 33.6432 15.5199 32.7615C14.3805 31.8798 13.5662 30.6446 13.2047 29.25H6.76323C6.45851 29.25 6.15883 29.1722 5.89266 29.0238C5.6265 28.8755 5.40268 28.6615 5.24246 28.4023C5.08225 28.1431 4.99096 27.8472 4.97727 27.5428C4.96358 27.2384 5.02793 26.9355 5.16423 26.663L8.12498 20.7415V14.625ZM16.6855 29.25C16.9707 29.744 17.381 30.1543 17.875 30.4395C18.3691 30.7247 18.9295 30.8749 19.5 30.8749C20.0704 30.8749 20.6309 30.7247 21.1249 30.4395C21.619 30.1543 22.0292 29.744 22.3145 29.25H16.6855ZM19.5 6.5C17.3451 6.5 15.2785 7.35602 13.7547 8.87976C12.231 10.4035 11.375 12.4701 11.375 14.625V20.7415C11.3749 21.2458 11.2576 21.7432 11.0321 22.1943L9.13085 26H29.8707L27.9695 22.1943C27.7435 21.7433 27.6255 21.2459 27.625 20.7415V14.625C27.625 12.4701 26.769 10.4035 25.2452 8.87976C23.7215 7.35602 21.6549 6.5 19.5 6.5Z" fill="white"/>
<ellipse cx="28.41" cy="8.58" rx="7.41" ry="7.02" fill="#D03A3A"/>
<path d="M25.054 13.12V12.2251L28.4148 8.54614C28.8092 8.11526 29.134 7.74074 29.3892 7.42256C29.6444 7.10106 29.8333 6.79945 29.956 6.51773C30.0819 6.23269 30.1449 5.93439 30.1449 5.62284C30.1449 5.26489 30.0587 4.95499 29.8864 4.69315C29.7173 4.43131 29.4853 4.22914 29.1903 4.08662C28.8954 3.9441 28.5639 3.87284 28.196 3.87284C27.8049 3.87284 27.4635 3.95404 27.1719 4.11645C26.8835 4.27554 26.6598 4.49926 26.5007 4.78761C26.3449 5.07596 26.267 5.41403 26.267 5.80182H25.0938C25.0938 5.20523 25.2313 4.68155 25.5064 4.23079C25.7815 3.78004 26.156 3.42871 26.63 3.17682C27.1072 2.92492 27.6425 2.79898 28.2358 2.79898C28.8324 2.79898 29.361 2.92492 29.8217 3.17682C30.2824 3.42871 30.6437 3.76844 30.9055 4.19599C31.1674 4.62355 31.2983 5.09917 31.2983 5.62284C31.2983 5.99737 31.2304 6.36361 31.0945 6.72156C30.9619 7.0762 30.7299 7.47227 30.3984 7.90977C30.0703 8.34396 29.6146 8.87426 29.0312 9.50068L26.7443 11.9467V12.0262H31.4773V13.12H25.054Z" fill="white"/>
</svg>
