<svg width="51" height="51" viewBox="0 0 51 51" fill="none" xmlns="http://www.w3.org/2000/svg">
<path d="M25.5 1C39.0233 1 50 11.9631 50 25.4766C50 32.8696 46.664 39.5227 41.5449 44.0645C41.4413 44.1943 41.335 44.2692 41.3008 44.292C41.2994 44.2929 41.2972 44.2931 41.2959 44.2939L41.2949 44.2959C41.0711 44.4699 40.8373 44.6424 40.6152 44.8057C40.3893 44.9717 40.1762 45.1285 39.9756 45.2832L39.9326 45.3154L39.8877 45.3438C39.8249 45.3822 39.7621 45.4296 39.6484 45.5176C39.5569 45.5884 39.4225 45.6904 39.2666 45.7881C35.2163 48.5296 30.4388 49.9973 25.5479 50H25.5469C20.6557 49.9973 15.8766 48.5308 11.8262 45.7891L11.793 45.7666L11.7627 45.7422C11.4229 45.4704 11.3748 45.4007 11.2148 45.3047L11.1846 45.2861L11.1553 45.2656C10.6618 44.9201 10.2194 44.5761 9.79883 44.249L9.41309 43.9492V43.9023C4.27488 39.4075 1.00002 32.8011 1 25.4766C1 11.9631 11.9767 1 25.5 1ZM25.5 33.3799C24.5097 33.3796 23.5231 33.5078 22.5664 33.7637C21.6076 34.0252 20.7523 34.3694 19.9463 34.835C19.1671 35.3125 18.3891 35.9166 17.7471 36.5586L17.7354 36.5703L17.7236 36.5811C17.0517 37.211 16.4998 37.9306 16.0254 38.75V38.751C15.5381 39.5909 15.1605 40.4897 14.9023 41.4258C14.8669 41.5675 14.8347 41.6992 14.8057 41.8242C17.8781 43.8437 21.5283 45.0406 25.498 45.041C29.3224 45.035 33.0562 43.9123 36.2461 41.8193C36.1164 41.1801 35.938 40.5681 35.7109 39.9824C35.149 38.6488 34.3765 37.4947 33.3936 36.5117H33.3926C31.2722 34.4815 28.4439 33.3577 25.5078 33.3799H25.5ZM25.5 5.91113C14.7244 5.91113 5.91406 14.7145 5.91406 25.4766C5.91408 30.2416 7.64768 34.5853 10.5264 38.0098C10.9655 36.9499 11.5186 35.9394 12.1797 34.998L12.1846 34.9902L12.1904 34.9824C13.1367 33.6875 14.2835 32.4936 15.584 31.4932C16.1576 31.0465 16.7618 30.6417 17.3906 30.2793C17.3035 30.1988 17.2157 30.1191 17.1318 30.0352C16.4113 29.3147 15.6879 28.4967 15.1533 27.5469C14.5829 26.6166 14.1726 25.6382 13.8691 24.5762V24.5752C13.5992 23.6726 13.4485 22.7345 13.415 21.7637L13.4082 21.3438C13.3928 19.7289 13.7072 18.1279 14.332 16.6387V16.6377C14.9329 15.207 15.8022 13.9048 16.8926 12.8008C17.9864 11.6772 19.297 10.7872 20.7451 10.1855C22.1452 9.59852 23.644 9.28596 25.1602 9.26367H25.7451C27.2621 9.285 28.762 9.59681 30.1631 10.1836L30.168 10.1855C31.4153 10.7159 32.5668 11.4462 33.5771 12.3457L34.001 12.7412L34.0059 12.7461C34.9761 13.7082 35.7764 14.8261 36.374 16.0518L36.6182 16.584L36.6211 16.5918C37.2439 18.0762 37.5581 19.6717 37.5449 21.2812L37.5439 21.6914C37.5033 23.7409 36.9193 25.7458 35.8477 27.499L35.8447 27.5029C35.288 28.4055 34.6251 29.2378 33.8711 29.9834C33.7951 30.0602 33.7161 30.1338 33.6377 30.208C34.2681 30.5621 34.8754 30.9571 35.4541 31.3926C36.7779 32.3894 37.9331 33.5932 38.873 34.958H38.8721C39.5268 35.9027 40.0758 36.9141 40.5166 37.9727C43.4502 34.4872 45.0804 30.067 45.0859 25.4766L45.0791 24.9736C44.8098 14.4416 36.1073 5.91113 25.5 5.91113ZM25.5 14.5029C24.5845 14.5029 23.6939 14.6702 22.9023 15.0264C22.0591 15.4059 21.3172 15.9016 20.708 16.5107C20.0971 17.1218 19.599 17.8616 19.2207 18.7021C18.8646 19.4937 18.6982 20.3846 18.6982 21.2969V21.3066C18.6903 22.0886 18.8271 22.8642 19.1006 23.5947L19.2256 23.9053L19.2324 23.9199L19.2383 23.9346C19.5589 24.7396 20.0415 25.4683 20.6572 26.0811L20.8994 26.3105C21.4737 26.8284 22.1283 27.2506 22.8379 27.5615C24.5292 28.251 26.4229 28.2508 28.1143 27.5615C28.8241 27.2505 29.4792 26.8286 30.0537 26.3105L30.2959 26.0811C30.9183 25.451 31.4202 24.7118 31.7754 23.9004L31.7793 23.8896C32.1359 23.0995 32.3017 22.2561 32.3018 21.2969C32.3018 20.3849 32.1352 19.4945 31.7793 18.7031L31.6318 18.3926C31.2745 17.6803 30.8266 17.0456 30.293 16.5117C29.682 15.9034 28.9393 15.4051 28.0977 15.0264C27.3036 14.669 26.4593 14.5029 25.5 14.5029Z" fill="white" stroke="#508CFF" stroke-width="2"/>
</svg>
