<?xml version="1.0" encoding="utf-8"?>
<svg width="28" height="28" viewBox="0 0 28 28" fill="none" xmlns="http://www.w3.org/2000/svg">
  <path d="M 26.232 27.979 C 26.232 27.979 27.981 27.979 27.981 25.648 C 27.981 23.316 26.232 16.321 19.237 16.321 C 12.242 16.321 10.493 23.316 10.493 25.648 C 10.493 27.979 12.242 27.979 12.242 27.979 L 26.232 27.979 Z M 12.28 25.648 L 12.242 25.638 C 12.243 25.024 12.534 23.237 13.571 21.628 C 14.536 20.119 16.232 18.653 19.237 18.653 C 22.24 18.653 23.936 20.122 24.903 21.628 C 25.94 23.237 26.229 25.026 26.232 25.638 L 26.218 25.643 L 26.194 25.648 L 12.28 25.648 Z M 19.237 11.658 C 20.164 11.658 21.054 11.167 21.71 10.292 C 22.366 9.418 22.734 8.231 22.734 6.995 C 22.734 5.758 22.366 4.572 21.71 3.697 C 21.054 2.823 20.164 2.332 19.237 2.332 C 18.309 2.332 17.42 2.823 16.764 3.697 C 16.108 4.572 15.739 5.758 15.739 6.995 C 15.739 8.231 16.108 9.418 16.764 10.292 C 17.42 11.167 18.309 11.658 19.237 11.658 Z M 24.483 6.995 C 24.483 7.913 24.348 8.822 24.084 9.672 C 23.82 10.521 23.434 11.291 22.947 11.941 C 22.459 12.591 21.881 13.105 21.245 13.457 C 20.608 13.809 19.926 13.989 19.237 13.989 C 18.548 13.989 17.866 13.809 17.229 13.457 C 16.593 13.105 16.014 12.591 15.527 11.941 C 15.04 11.291 14.653 10.521 14.39 9.672 C 14.126 8.822 13.99 7.913 13.99 6.995 C 13.99 5.14 14.543 3.361 15.527 2.049 C 16.511 0.736 17.845 0 19.237 0 C 20.628 0 21.963 0.736 22.947 2.049 C 23.931 3.361 24.483 5.14 24.483 6.995 Z M 12.13 16.974 C 11.43 16.683 10.709 16.489 9.979 16.398 C 9.568 16.345 9.156 16.319 8.744 16.321 C 1.749 16.321 0 23.316 0 25.648 C 0 27.202 0.583 27.979 1.749 27.979 L 9.122 27.979 C 8.863 27.252 8.733 26.453 8.744 25.648 C 8.744 23.293 9.403 20.887 10.65 18.877 C 11.075 18.191 11.57 17.551 12.13 16.974 Z M 8.604 18.653 C 7.57 20.727 7.011 23.158 6.995 25.648 L 1.749 25.648 C 1.749 25.042 2.036 23.246 3.078 21.628 C 4.031 20.145 5.687 18.7 8.604 18.655 L 8.604 18.653 Z M 2.623 8.161 C 2.623 6.306 3.176 4.527 4.16 3.215 C 5.144 1.903 6.478 1.166 7.87 1.166 C 9.261 1.166 10.596 1.903 11.579 3.215 C 12.563 4.527 13.116 6.306 13.116 8.161 C 13.116 10.016 12.563 11.795 11.579 13.107 C 10.596 14.419 9.261 15.156 7.87 15.156 C 6.478 15.156 5.144 14.419 4.16 13.107 C 3.176 11.795 2.623 10.016 2.623 8.161 Z M 7.87 3.498 C 6.942 3.498 6.052 3.988 5.396 4.863 C 4.741 5.738 4.372 6.924 4.372 8.161 C 4.372 9.397 4.741 10.583 5.396 11.459 C 6.052 12.333 6.942 12.824 7.87 12.824 C 8.797 12.824 9.687 12.333 10.343 11.459 C 10.999 10.583 11.367 9.397 11.367 8.161 C 11.367 6.924 10.999 5.738 10.343 4.863 C 9.687 3.988 8.797 3.498 7.87 3.498 Z" fill="#E6E6E6" style=""/>
</svg>