<?xml version="1.0" encoding="utf-8"?>
<svg width="25" height="28" viewBox="0 0 25 28" fill="none" xmlns="http://www.w3.org/2000/svg">
  <path d="M 0 3.49 C 0 2.878 0.192 2.276 0.557 1.746 C 0.923 1.215 1.448 0.774 2.08 0.467 L 2.08 24.433 C 2.08 24.896 2.299 25.34 2.689 25.666 C 3.079 25.994 3.609 26.178 4.16 26.178 L 20.801 26.178 C 21.353 26.178 21.882 25.994 22.272 25.666 C 22.662 25.34 22.881 24.896 22.881 24.433 L 22.881 3.49 C 22.881 3.027 22.662 2.583 22.272 2.257 C 21.882 1.929 21.353 1.746 20.801 1.746 L 16.641 1.746 L 16.641 0 L 20.801 0 C 21.905 0 22.963 0.368 23.743 1.023 C 24.523 1.676 24.962 2.565 24.962 3.49 L 24.962 24.433 C 24.962 25.358 24.523 26.247 23.743 26.901 C 22.963 27.555 21.905 27.923 20.801 27.923 L 4.16 27.923 C 3.057 27.923 1.999 27.555 1.219 26.901 C 0.438 26.247 0 25.358 0 24.433 L 0 3.49 Z M 4.16 0 L 4.16 11.344 C 4.16 11.505 4.214 11.665 4.316 11.802 C 4.417 11.941 4.562 12.051 4.735 12.124 C 4.908 12.197 5.101 12.227 5.294 12.213 C 5.486 12.198 5.67 12.139 5.824 12.042 L 9.361 9.817 L 12.897 12.042 C 13.051 12.139 13.235 12.198 13.427 12.213 C 13.62 12.227 13.813 12.197 13.986 12.124 C 14.159 12.051 14.304 11.941 14.406 11.802 C 14.507 11.665 14.561 11.505 14.561 11.344 L 14.561 0 L 4.16 0 Z M 6.24 9.598 L 6.24 1.746 L 12.481 1.746 L 12.481 9.598 L 9.985 8.028 C 9.805 7.915 9.586 7.854 9.361 7.854 C 9.136 7.854 8.917 7.915 8.737 8.028 L 6.24 9.598 Z" fill="#E6E6E6" style=""/>
</svg>