<?xml version="1.0" encoding="utf-8"?>
<svg width="28" height="28" viewBox="0 0 28 28" fill="none" xmlns="http://www.w3.org/2000/svg">
  <path d="M 15.195 18.348 L 14.008 15.411 L 12.817 18.348 L 9.766 18.618 L 12.084 20.701 L 11.385 23.805 L 14.008 22.155 L 16.629 23.805 L 15.931 20.701 L 18.249 18.618 L 15.195 18.348 Z M 5.523 0.022 L 22.492 0.022 L 22.492 2.82 L 5.523 2.82 L 5.523 0.022 Z M 2.696 5.619 L 25.32 5.619 L 25.32 8.417 L 2.696 8.417 L 2.696 5.619 Z" fill="#E6E6E6" style=""/>
  <path d="M 25.153 14.012 L 25.153 25.204 L 2.858 25.204 L 2.858 14.012 L 25.153 14.012 Z M 25.153 11.214 L 2.858 11.214 C 2.12 11.214 1.411 11.508 0.889 12.034 C 0.367 12.558 0.072 13.27 0.072 14.012 L 0.072 25.204 C 0.072 25.945 0.367 26.658 0.889 27.183 C 1.411 27.708 2.12 28.002 2.858 28.002 L 25.153 28.002 C 25.893 28.002 26.603 27.708 27.125 27.183 C 27.648 26.658 27.94 25.945 27.94 25.204 L 27.94 14.012 C 27.94 13.27 27.648 12.558 27.125 12.034 C 26.603 11.508 25.893 11.214 25.153 11.214 Z" fill="#E6E6E6" style=""/>
</svg>