<svg width="27" height="27" viewBox="0 0 27 27" fill="none" xmlns="http://www.w3.org/2000/svg">
<path d="M1.06067 12.1179C1.06067 6.9058 1.06067 4.29908 2.68054 2.68059C4.30041 1.0621 6.90575 1.06071 12.1178 1.06071H14.8821C20.0942 1.06071 22.7009 1.06071 24.3194 2.68059C25.9379 4.30046 25.9392 6.9058 25.9392 12.1179V14.8821C25.9392 20.0942 25.9392 22.7009 24.3194 24.3194C22.6995 25.9379 20.0942 25.9393 14.8821 25.9393H12.1178C6.90575 25.9393 4.29903 25.9393 2.68054 24.3194C1.06205 22.6995 1.06067 20.0942 1.06067 14.8821V12.1179Z" stroke="#E6E6E6" stroke-width="2"/>
<path fill-rule="evenodd" clip-rule="evenodd" d="M23.1749 15.6907L23.1473 15.6631C22.6083 15.124 22.1439 14.6596 21.7292 14.3099C21.2911 13.9409 20.8142 13.6161 20.2254 13.4392C19.4448 13.2038 18.6122 13.2038 17.8316 13.4392C17.2428 13.6175 16.7673 13.9409 16.3278 14.3099C15.9132 14.6596 15.4488 15.1254 14.9111 15.6644L14.871 15.7031C14.4467 16.1261 14.1979 16.3749 14.003 16.5338L13.9754 16.5573L13.9588 16.5255C13.8386 16.3044 13.6976 15.9823 13.4612 15.4309L13.388 15.2595L13.3576 15.1876C12.8655 14.0404 12.4523 13.0757 12.0445 12.3487C11.623 11.6009 11.0978 10.8974 10.2796 10.4883C9.59689 10.1463 8.83307 9.99951 8.07227 10.064C7.16006 10.14 6.41232 10.5975 5.74336 11.1352C5.18221 11.5871 4.55472 12.1994 3.82495 12.9278V14.8821C3.82495 15.5953 3.82633 16.2454 3.8291 16.8323L5.3688 15.2926C6.32248 14.339 6.95827 13.7073 7.47657 13.2885C7.98796 12.8767 8.20911 12.8255 8.30586 12.8186C8.55926 12.7971 8.81369 12.8458 9.04116 12.9596C9.12547 13.0024 9.31206 13.131 9.63548 13.7059C9.96166 14.2864 10.3169 15.1102 10.8476 16.3486L10.9209 16.52L10.9444 16.5725C11.1503 17.0535 11.341 17.4985 11.5318 17.8496C11.7322 18.2159 12.0224 18.6554 12.5117 18.9581C13.0882 19.3153 13.7759 19.4481 14.4439 19.3313C15.0106 19.2304 15.4432 18.9304 15.7653 18.6651C16.0721 18.4108 16.4149 18.068 16.7853 17.6976L16.8268 17.6561C17.4142 17.0687 17.7956 16.6886 18.1094 16.4246C18.4107 16.1703 18.5517 16.1095 18.6291 16.086C18.8896 16.0074 19.1675 16.0074 19.428 16.086C19.5054 16.1095 19.6463 16.1703 19.9476 16.4246C20.2614 16.6886 20.6429 17.0687 21.2316 17.6575L23.0975 19.5234C23.1611 18.531 23.1722 17.2981 23.1749 15.6907Z" fill="#E6E6E6"/>
<path d="M19.7196 9.35357C20.8646 9.35357 21.7928 8.42536 21.7928 7.28036C21.7928 6.13535 20.8646 5.20714 19.7196 5.20714C18.5746 5.20714 17.6464 6.13535 17.6464 7.28036C17.6464 8.42536 18.5746 9.35357 19.7196 9.35357Z" fill="#E6E6E6"/>
</svg>
