<svg width="26" height="27" viewBox="0 0 26 27" fill="none" xmlns="http://www.w3.org/2000/svg">
<path d="M12.8202 13.5C16.5572 13.5 19.5867 10.7018 19.5867 7.25C19.5867 3.79822 16.5572 1 12.8202 1C9.08317 1 6.05371 3.79822 6.05371 7.25C6.05371 10.7018 9.08317 13.5 12.8202 13.5Z" stroke="#E6E6E6" stroke-width="2"/>
<path d="M19.5868 26H3.70719C3.32337 26.0001 2.94392 25.9247 2.59403 25.779C2.24413 25.6333 1.9318 25.4205 1.67775 25.1547C1.4237 24.889 1.23375 24.5764 1.1205 24.2376C1.00725 23.8989 0.973295 23.5418 1.02089 23.19L1.54868 19.285C1.67142 18.3778 2.14875 17.5432 2.89092 16.9383C3.63309 16.3333 4.58897 15.9996 5.5788 16H6.05381M22.2934 16V21M19.5868 18.5H25" stroke="#E6E6E6" stroke-width="2" stroke-linecap="round" stroke-linejoin="round"/>
</svg>
