<?xml version="1.0" encoding="utf-8"?>
<svg width="28" height="28" viewBox="0 0 28 28" fill="none" xmlns="http://www.w3.org/2000/svg">
  <path d="M 27.776 0.589 C 27.684 0.426 27.557 0.291 27.408 0.199 C 27.26 0.106 27.092 0.057 26.923 0.057 L 16.788 0.057 C 16.594 0.057 16.403 0.121 16.239 0.242 C 16.076 0.362 15.947 0.534 15.865 0.736 L 14.753 3.534 L 1.079 3.534 C 0.882 3.534 0.69 3.599 0.526 3.721 C 0.361 3.844 0.231 4.018 0.151 4.224 C 0.072 4.43 0.047 4.656 0.078 4.878 C 0.109 5.1 0.197 5.306 0.328 5.472 L 4.777 11.066 L 0.328 16.662 C 0.197 16.827 0.109 17.034 0.078 17.255 C 0.047 17.476 0.072 17.705 0.151 17.909 C 0.231 18.115 0.361 18.289 0.526 18.412 C 0.69 18.535 0.882 18.599 1.079 18.599 L 10.338 18.599 C 10.533 18.599 10.724 18.536 10.886 18.414 C 11.05 18.295 11.18 18.122 11.261 17.921 L 12.373 15.123 L 20.282 15.123 L 15.865 26.232 C 15.806 26.372 15.771 26.522 15.765 26.677 C 15.757 26.832 15.777 26.987 15.823 27.133 C 15.868 27.278 15.94 27.412 16.03 27.525 C 16.122 27.639 16.233 27.732 16.357 27.794 C 16.481 27.859 16.614 27.894 16.748 27.898 C 16.884 27.903 17.02 27.876 17.145 27.819 C 17.271 27.763 17.386 27.679 17.483 27.571 C 17.581 27.463 17.657 27.334 17.71 27.191 L 27.845 1.695 C 27.915 1.519 27.945 1.325 27.934 1.132 C 27.922 0.938 27.866 0.751 27.776 0.589 Z M 9.685 16.282 L 3.369 16.282 L 6.895 11.847 C 7.066 11.633 7.16 11.355 7.16 11.066 C 7.16 10.778 7.066 10.501 6.895 10.288 L 3.369 5.852 L 13.832 5.852 L 9.685 16.282 Z M 21.203 12.805 L 13.294 12.805 L 17.441 2.375 L 25.349 2.375 L 21.203 12.805 Z" fill="#E6E6E6" style=""/>
</svg>