<svg width="31" height="29" viewBox="0 0 31 29" fill="none" xmlns="http://www.w3.org/2000/svg">
<path fill-rule="evenodd" clip-rule="evenodd" d="M3.875 0C2.84729 0 1.86166 0.381919 1.13496 1.06174C0.408258 1.74156 0 2.66359 0 3.625L0 21.8588L2.48 19.5387L5.44438 16.7656H7.75V19.9375C7.75 20.8989 8.15826 21.8209 8.88496 22.5008C9.61166 23.1806 10.5973 23.5625 11.625 23.5625H25.1875L28.0938 26.2812L31 29V10.875C31 9.91359 30.5917 8.99156 29.865 8.31174C29.1383 7.63192 28.1527 7.25 27.125 7.25H23.25V3.625C23.25 2.66359 22.8417 1.74156 22.115 1.06174C21.3883 0.381919 20.4027 0 19.375 0L3.875 0ZM20.3438 7.25V3.625C20.3438 3.38465 20.2417 3.15414 20.06 2.98418C19.8783 2.81423 19.6319 2.71875 19.375 2.71875H3.875C3.61807 2.71875 3.37167 2.81423 3.18999 2.98418C3.00831 3.15414 2.90625 3.38465 2.90625 3.625V15.2975L3.81687 14.4456L4.24312 14.0469H7.75V10.875C7.75 9.91359 8.15826 8.99156 8.88496 8.31174C9.61166 7.63192 10.5973 7.25 11.625 7.25H20.3438ZM27.2413 21.6412L28.0938 22.4369V10.875C28.0938 10.6346 27.9917 10.4041 27.81 10.2342C27.6283 10.0642 27.3819 9.96875 27.125 9.96875H11.625C11.3681 9.96875 11.1217 10.0642 10.94 10.2342C10.7583 10.4041 10.6562 10.6346 10.6562 10.875V19.9375C10.6562 20.1779 10.7583 20.4084 10.94 20.5783C11.1217 20.7483 11.3681 20.8438 11.625 20.8438H26.3907L27.2413 21.6412Z" fill="#E6E6E6"/>
</svg>
