<svg width="95" height="35" viewBox="0 0 95 35" fill="none" xmlns="http://www.w3.org/2000/svg">
<rect x="4.5" y="3.5" width="90" height="28" rx="14" fill="#D9D9D9" stroke="url(#paint0_linear_441_2433)"/>
<circle cx="21.5" cy="17.5" r="17" fill="url(#paint1_linear_441_2433)" stroke="url(#paint2_linear_441_2433)"/>
<path d="M77.5301 12.03L80.0601 10.09L76.8701 10L75.8101 7L74.7501 10L71.5601 10.09L74.0901 12.03L73.1801 15.09L75.8101 13.28L78.4401 15.09L77.5301 12.03Z" fill="#4E57FF"/>
<path d="M81.9201 18.25L83.5601 17L81.5001 16.95L80.8101 15L80.1201 16.95L78.0601 17L79.7001 18.25L79.1101 20.23L80.8101 19.06L82.5101 20.23L81.9201 18.25Z" fill="#4E57FF"/>
<path d="M70 12C70 18.08 74.92 23 81 23C81.53 23 82.05 22.96 82.56 22.89C80.95 25.36 78.17 27 75 27C70.03 27 66 22.97 66 18C66 14.83 67.64 12.05 70.11 10.44C70.04 10.95 70 11.47 70 12Z" stroke="url(#paint3_linear_441_2433)" stroke-width="2" stroke-linecap="round" stroke-linejoin="round"/>
<g clip-path="url(#clip0_441_2433)">
<path d="M16.695 28.3939L19.3301 25.6939C18.4094 25.4937 17.5324 25.1291 16.7411 24.6176L16.695 28.3939ZM25.305 7.6065L22.6706 10.3061C23.5913 10.5065 24.4684 10.8712 25.2596 11.3828L25.305 7.6065ZM13.3065 19.6702L10.6061 22.3046L14.3824 22.2589C13.8711 21.4677 13.5066 20.5908 13.3065 19.6702ZM28.6935 16.3301L31.3939 13.695L27.6176 13.7411C28.1289 14.5324 28.4934 15.4095 28.6935 16.3301ZM14.3828 13.7408L10.6065 13.6946L13.3069 16.3297C13.5062 15.4089 13.8707 14.5317 14.3828 13.7408ZM27.6172 22.2593L31.3935 22.305L28.6931 19.6702C28.4938 20.5911 28.1293 21.4683 27.6172 22.2593ZM19.3301 10.3061L16.695 7.60612L16.7411 11.3824C17.5324 10.8709 18.4094 10.5063 19.3301 10.3061ZM22.6699 25.6939L25.305 28.3935L25.2589 24.6176C24.4676 25.1291 23.5906 25.4937 22.6699 25.6939ZM14.532 22.4858L13.0444 25.9549L16.5139 24.468C15.7405 23.9305 15.0694 23.2592 14.532 22.4858ZM27.468 13.5146L28.9549 10.0451L25.4861 11.532C26.2595 12.0696 26.9306 12.7411 27.468 13.5146ZM13.125 18C13.125 17.5208 13.1749 17.0535 13.257 16.5971L9.75 17.9996L13.257 19.4021C13.1712 18.9396 13.127 18.4704 13.125 18ZM32.25 18L28.743 16.5971C28.8251 17.0535 28.875 17.5208 28.875 18C28.875 18.4792 28.8251 18.9469 28.743 19.4029L32.25 18ZM16.5146 11.5316L13.0451 10.0448L14.532 13.5143C15.0702 12.7411 15.7415 12.0698 16.5146 11.5316ZM25.4854 24.468L28.9549 25.9549L27.468 22.4858C26.9304 23.2592 26.259 23.9305 25.4854 24.468ZM22.4025 10.257L21 6.75L19.5975 10.257C20.0531 10.1749 20.5204 10.125 21 10.125C21.4796 10.125 21.9469 10.1749 22.4025 10.257ZM19.5975 25.743L21 29.25L22.4025 25.743C21.9469 25.8251 21.4796 25.875 21 25.875C20.5204 25.875 20.0531 25.8251 19.5975 25.743Z" fill="white"/>
<path d="M21 25.125C24.935 25.125 28.125 21.935 28.125 18C28.125 14.065 24.935 10.875 21 10.875C17.065 10.875 13.875 14.065 13.875 18C13.875 21.935 17.065 25.125 21 25.125Z" fill="white"/>
</g>
<defs>
<linearGradient id="paint0_linear_441_2433" x1="4" y1="17.5" x2="95" y2="17.5" gradientUnits="userSpaceOnUse">
<stop stop-color="#FF9245"/>
<stop offset="0.956731" stop-color="#721818"/>
</linearGradient>
<linearGradient id="paint1_linear_441_2433" x1="9" y1="2" x2="37" y2="30.5" gradientUnits="userSpaceOnUse">
<stop stop-color="#FF9245"/>
<stop offset="1" stop-color="#721818"/>
</linearGradient>
<linearGradient id="paint2_linear_441_2433" x1="21.5" y1="0" x2="32.5" y2="29" gradientUnits="userSpaceOnUse">
<stop stop-color="#FF9245"/>
<stop offset="1" stop-color="#721818"/>
</linearGradient>
<linearGradient id="paint3_linear_441_2433" x1="74.28" y1="10.44" x2="74.28" y2="27" gradientUnits="userSpaceOnUse">
<stop stop-color="#4E57FF"/>
<stop offset="1" stop-color="#272B78"/>
</linearGradient>
<clipPath id="clip0_441_2433">
<rect width="24" height="24" fill="white" transform="translate(9 6)"/>
</clipPath>
</defs>
</svg>
