<svg width="518" height="55" viewBox="0 0 518 55" fill="none" xmlns="http://www.w3.org/2000/svg">
<path d="M388.019 32.6307C386.811 38.9112 383.453 44.5748 378.522 48.6479C373.591 52.7209 367.396 54.9489 361 54.9489C354.604 54.9489 348.409 52.7209 343.478 48.6479C338.547 44.5748 335.189 38.9112 333.981 32.6307H311.156C309.789 32.6307 308.477 32.0875 307.51 31.1205C306.543 30.1535 306 28.842 306 27.4745C306 26.1069 306.543 24.7954 307.51 23.8284C308.477 22.8615 309.789 22.3182 311.156 22.3182H333.981C335.189 16.0377 338.547 10.3741 343.478 6.30107C348.409 2.22803 354.604 0 361 0C367.396 0 373.591 2.22803 378.522 6.30107C383.453 10.3741 386.811 16.0377 388.019 22.3182H410.844C412.211 22.3182 413.523 22.8615 414.49 23.8284C415.457 24.7954 416 26.1069 416 27.4745C416 28.842 415.457 30.1535 414.49 31.1205C413.523 32.0875 412.211 32.6307 410.844 32.6307H388.019ZM378.188 27.4745C378.188 22.9161 376.377 18.5443 373.153 15.3211C369.93 12.0978 365.558 10.287 361 10.287C356.442 10.287 352.07 12.0978 348.847 15.3211C345.623 18.5443 343.812 22.9161 343.812 27.4745C343.812 32.0329 345.623 36.4046 348.847 39.6279C352.07 42.8511 356.442 44.662 361 44.662C365.558 44.662 369.93 42.8511 373.153 39.6279C376.377 36.4046 378.188 32.0329 378.188 27.4745Z" fill="#2C2C2E"/>
<path d="M286.019 32.6307C284.811 38.9112 281.453 44.5748 276.522 48.6479C271.591 52.7209 265.396 54.9489 259 54.9489C252.604 54.9489 246.409 52.7209 241.478 48.6479C236.547 44.5748 233.189 38.9112 231.981 32.6307H209.156C207.789 32.6307 206.477 32.0875 205.51 31.1205C204.543 30.1535 204 28.842 204 27.4745C204 26.1069 204.543 24.7954 205.51 23.8284C206.477 22.8615 207.789 22.3182 209.156 22.3182H231.981C233.189 16.0377 236.547 10.3741 241.478 6.30107C246.409 2.22803 252.604 0 259 0C265.396 0 271.591 2.22803 276.522 6.30107C281.453 10.3741 284.811 16.0377 286.019 22.3182H308.844C310.211 22.3182 311.523 22.8615 312.49 23.8284C313.457 24.7954 314 26.1069 314 27.4745C314 28.842 313.457 30.1535 312.49 31.1205C311.523 32.0875 310.211 32.6307 308.844 32.6307H286.019ZM276.188 27.4745C276.188 22.9161 274.377 18.5443 271.153 15.3211C267.93 12.0978 263.558 10.287 259 10.287C254.442 10.287 250.07 12.0978 246.847 15.3211C243.623 18.5443 241.812 22.9161 241.812 27.4745C241.812 32.0329 243.623 36.4046 246.847 39.6279C250.07 42.8511 254.442 44.662 259 44.662C263.558 44.662 267.93 42.8511 271.153 39.6279C274.377 36.4046 276.188 32.0329 276.188 27.4745Z" fill="#2C2C2E"/>
<path d="M184.019 32.6307C182.811 38.9112 179.453 44.5748 174.522 48.6479C169.591 52.7209 163.396 54.9489 157 54.9489C150.604 54.9489 144.409 52.7209 139.478 48.6479C134.547 44.5748 131.189 38.9112 129.981 32.6307H107.156C105.789 32.6307 104.477 32.0875 103.51 31.1205C102.543 30.1535 102 28.842 102 27.4745C102 26.1069 102.543 24.7954 103.51 23.8284C104.477 22.8615 105.789 22.3182 107.156 22.3182H129.981C131.189 16.0377 134.547 10.3741 139.478 6.30107C144.409 2.22803 150.604 0 157 0C163.396 0 169.591 2.22803 174.522 6.30107C179.453 10.3741 182.811 16.0377 184.019 22.3182H206.844C208.211 22.3182 209.523 22.8615 210.49 23.8284C211.457 24.7954 212 26.1069 212 27.4745C212 28.842 211.457 30.1535 210.49 31.1205C209.523 32.0875 208.211 32.6307 206.844 32.6307H184.019ZM174.188 27.4745C174.188 22.9161 172.377 18.5443 169.153 15.3211C165.93 12.0978 161.558 10.287 157 10.287C152.442 10.287 148.07 12.0978 144.847 15.3211C141.623 18.5443 139.812 22.9161 139.812 27.4745C139.812 32.0329 141.623 36.4046 144.847 39.6279C148.07 42.8511 152.442 44.662 157 44.662C161.558 44.662 165.93 42.8511 169.153 39.6279C172.377 36.4046 174.188 32.0329 174.188 27.4745Z" fill="#2C2C2E"/>
<path d="M82.0188 32.6307C80.8111 38.9112 77.4531 44.5748 72.5222 48.6479C67.5914 52.7209 61.3956 54.9489 55 54.9489C48.6044 54.9489 42.4086 52.7209 37.4778 48.6479C32.5469 44.5748 29.189 38.9112 27.9813 32.6307H5.15625C3.78873 32.6307 2.47722 32.0875 1.51023 31.1205C0.543246 30.1535 0 28.842 0 27.4745C0 26.1069 0.543246 24.7954 1.51023 23.8284C2.47722 22.8615 3.78873 22.3182 5.15625 22.3182H27.9813C29.189 16.0377 32.5469 10.3741 37.4778 6.30107C42.4086 2.22803 48.6044 0 55 0C61.3956 0 67.5914 2.22803 72.5222 6.30107C77.4531 10.3741 80.8111 16.0377 82.0188 22.3182H104.844C106.211 22.3182 107.523 22.8615 108.49 23.8284C109.457 24.7954 110 26.1069 110 27.4745C110 28.842 109.457 30.1535 108.49 31.1205C107.523 32.0875 106.211 32.6307 104.844 32.6307H82.0188ZM72.1875 27.4745C72.1875 22.9161 70.3767 18.5443 67.1534 15.3211C63.9301 12.0978 59.5584 10.287 55 10.287C50.4416 10.287 46.0699 12.0978 42.8466 15.3211C39.6233 18.5443 37.8125 22.9161 37.8125 27.4745C37.8125 32.0329 39.6233 36.4046 42.8466 39.6279C46.0699 42.8511 50.4416 44.662 55 44.662C59.5584 44.662 63.9301 42.8511 67.1534 39.6279C70.3767 36.4046 72.1875 32.0329 72.1875 27.4745Z" fill="#2C2C2E"/>
<path d="M82.0188 32.6307C80.8111 38.9112 77.4531 44.5748 72.5222 48.6479C67.5914 52.7209 61.3956 54.9489 55 54.9489C48.6044 54.9489 42.4086 52.7209 37.4778 48.6479C32.5469 44.5748 29.189 38.9112 27.9813 32.6307H5.15625C3.78873 32.6307 2.47722 32.0875 1.51023 31.1205C0.543246 30.1535 0 28.842 0 27.4745C0 26.1069 0.543246 24.7954 1.51023 23.8284C2.47722 22.8615 3.78873 22.3182 5.15625 22.3182H27.9813C29.189 16.0377 32.5469 10.3741 37.4778 6.30107C42.4086 2.22803 48.6044 0 55 0C61.3956 0 67.5914 2.22803 72.5222 6.30107C77.4531 10.3741 80.8111 16.0377 82.0188 22.3182H104.844C106.211 22.3182 107.523 22.8615 108.49 23.8284C109.457 24.7954 110 26.1069 110 27.4745C110 28.842 109.457 30.1535 108.49 31.1205C107.523 32.0875 106.211 32.6307 104.844 32.6307H82.0188ZM72.1875 27.4745C72.1875 22.9161 70.3767 18.5443 67.1534 15.3211C63.9301 12.0978 59.5584 10.287 55 10.287C50.4416 10.287 46.0699 12.0978 42.8466 15.3211C39.6233 18.5443 37.8125 22.9161 37.8125 27.4745C37.8125 32.0329 39.6233 36.4046 42.8466 39.6279C46.0699 42.8511 50.4416 44.662 55 44.662C59.5584 44.662 63.9301 42.8511 67.1534 39.6279C70.3767 36.4046 72.1875 32.0329 72.1875 27.4745Z" fill="url(#paint0_linear_407_795)"/>
<path d="M490.019 32.6307C488.811 38.9112 485.453 44.5748 480.522 48.6479C475.591 52.7209 469.396 54.9489 463 54.9489C456.604 54.9489 450.409 52.7209 445.478 48.6479C440.547 44.5748 437.189 38.9112 435.981 32.6307H413.156C411.789 32.6307 410.477 32.0875 409.51 31.1205C408.543 30.1535 408 28.842 408 27.4745C408 26.1069 408.543 24.7954 409.51 23.8284C410.477 22.8615 411.789 22.3182 413.156 22.3182H435.981C437.189 16.0377 440.547 10.3741 445.478 6.30107C450.409 2.22803 456.604 0 463 0C469.396 0 475.591 2.22803 480.522 6.30107C485.453 10.3741 488.811 16.0377 490.019 22.3182H512.844C514.211 22.3182 515.523 22.8615 516.49 23.8284C517.457 24.7954 518 26.1069 518 27.4745C518 28.842 517.457 30.1535 516.49 31.1205C515.523 32.0875 514.211 32.6307 512.844 32.6307H490.019ZM480.188 27.4745C480.188 22.9161 478.377 18.5443 475.153 15.3211C471.93 12.0978 467.558 10.287 463 10.287C458.442 10.287 454.07 12.0978 450.847 15.3211C447.623 18.5443 445.812 22.9161 445.812 27.4745C445.812 32.0329 447.623 36.4046 450.847 39.6279C454.07 42.8511 458.442 44.662 463 44.662C467.558 44.662 471.93 42.8511 475.153 39.6279C478.377 36.4046 480.188 32.0329 480.188 27.4745Z" fill="#2C2C2E"/>
<defs>
<linearGradient id="paint0_linear_407_795" x1="90.5" y1="27" x2="69" y2="27" gradientUnits="userSpaceOnUse">
<stop stop-color="#0C2555" stop-opacity="0"/>
<stop offset="1" stop-color="#E0E2E5" stop-opacity="0.73"/>
</linearGradient>
</defs>
</svg>
