<svg width="518" height="55" viewBox="0 0 518 55" fill="none" xmlns="http://www.w3.org/2000/svg">
<path d="M286.019 32.6307C284.811 38.9112 281.453 44.5748 276.522 48.6479C271.591 52.7209 265.396 54.9489 259 54.9489C252.604 54.9489 246.409 52.7209 241.478 48.6479C236.547 44.5748 233.189 38.9112 231.981 32.6307H209.156C207.789 32.6307 206.477 32.0875 205.51 31.1205C204.543 30.1535 204 28.842 204 27.4745C204 26.1069 204.543 24.7954 205.51 23.8284C206.477 22.8615 207.789 22.3182 209.156 22.3182H231.981C233.189 16.0377 236.547 10.3741 241.478 6.30107C246.409 2.22803 252.604 0 259 0C265.396 0 271.591 2.22803 276.522 6.30107C281.453 10.3741 284.811 16.0377 286.019 22.3182H308.844C310.211 22.3182 311.523 22.8615 312.49 23.8284C313.457 24.7954 314 26.1069 314 27.4745C314 28.842 313.457 30.1535 312.49 31.1205C311.523 32.0875 310.211 32.6307 308.844 32.6307H286.019ZM276.188 27.4745C276.188 22.9161 274.377 18.5443 271.153 15.3211C267.93 12.0978 263.558 10.287 259 10.287C254.442 10.287 250.07 12.0978 246.847 15.3211C243.623 18.5443 241.812 22.9161 241.812 27.4745C241.812 32.0329 243.623 36.4046 246.847 39.6279C250.07 42.8511 254.442 44.662 259 44.662C263.558 44.662 267.93 42.8511 271.153 39.6279C274.377 36.4046 276.188 32.0329 276.188 27.4745Z" fill="#164194"/>
<path d="M183.019 32.6307C181.811 38.9112 178.453 44.5748 173.522 48.6479C168.591 52.7209 162.396 54.9489 156 54.9489C149.604 54.9489 143.409 52.7209 138.478 48.6479C133.547 44.5748 130.189 38.9112 128.981 32.6307H106.156C104.789 32.6307 103.477 32.0875 102.51 31.1205C101.543 30.1535 101 28.842 101 27.4745C101 26.1069 101.543 24.7954 102.51 23.8284C103.477 22.8615 104.789 22.3182 106.156 22.3182H128.981C130.189 16.0377 133.547 10.3741 138.478 6.30107C143.409 2.22803 149.604 0 156 0C162.396 0 168.591 2.22803 173.522 6.30107C178.453 10.3741 181.811 16.0377 183.019 22.3182H205.844C207.211 22.3182 208.523 22.8615 209.49 23.8284C210.457 24.7954 211 26.1069 211 27.4745C211 28.842 210.457 30.1535 209.49 31.1205C208.523 32.0875 207.211 32.6307 205.844 32.6307H183.019ZM173.188 27.4745C173.188 22.9161 171.377 18.5443 168.153 15.3211C164.93 12.0978 160.558 10.287 156 10.287C151.442 10.287 147.07 12.0978 143.847 15.3211C140.623 18.5443 138.812 22.9161 138.812 27.4745C138.812 32.0329 140.623 36.4046 143.847 39.6279C147.07 42.8511 151.442 44.662 156 44.662C160.558 44.662 164.93 42.8511 168.153 39.6279C171.377 36.4046 173.188 32.0329 173.188 27.4745Z" fill="white"/>
<path d="M183.019 32.6307C181.811 38.9112 178.453 44.5748 173.522 48.6479C168.591 52.7209 162.396 54.9489 156 54.9489C149.604 54.9489 143.409 52.7209 138.478 48.6479C133.547 44.5748 130.189 38.9112 128.981 32.6307H106.156C104.789 32.6307 103.477 32.0875 102.51 31.1205C101.543 30.1535 101 28.842 101 27.4745C101 26.1069 101.543 24.7954 102.51 23.8284C103.477 22.8615 104.789 22.3182 106.156 22.3182H128.981C130.189 16.0377 133.547 10.3741 138.478 6.30107C143.409 2.22803 149.604 0 156 0C162.396 0 168.591 2.22803 173.522 6.30107C178.453 10.3741 181.811 16.0377 183.019 22.3182H205.844C207.211 22.3182 208.523 22.8615 209.49 23.8284C210.457 24.7954 211 26.1069 211 27.4745C211 28.842 210.457 30.1535 209.49 31.1205C208.523 32.0875 207.211 32.6307 205.844 32.6307H183.019ZM173.188 27.4745C173.188 22.9161 171.377 18.5443 168.153 15.3211C164.93 12.0978 160.558 10.287 156 10.287C151.442 10.287 147.07 12.0978 143.847 15.3211C140.623 18.5443 138.812 22.9161 138.812 27.4745C138.812 32.0329 140.623 36.4046 143.847 39.6279C147.07 42.8511 151.442 44.662 156 44.662C160.558 44.662 164.93 42.8511 168.153 39.6279C171.377 36.4046 173.188 32.0329 173.188 27.4745Z" fill="#164194"/>
<path d="M82.0188 32.6307C80.8111 38.9112 77.4531 44.5748 72.5222 48.6479C67.5914 52.7209 61.3956 54.9489 55 54.9489C48.6044 54.9489 42.4086 52.7209 37.4778 48.6479C32.5469 44.5748 29.189 38.9112 27.9813 32.6307H5.15625C3.78873 32.6307 2.47722 32.0875 1.51023 31.1205C0.543246 30.1535 0 28.842 0 27.4745C0 26.1069 0.543246 24.7954 1.51023 23.8284C2.47722 22.8615 3.78873 22.3182 5.15625 22.3182H27.9813C29.189 16.0377 32.5469 10.3741 37.4778 6.30107C42.4086 2.22803 48.6044 0 55 0C61.3956 0 67.5914 2.22803 72.5222 6.30107C77.4531 10.3741 80.8111 16.0377 82.0188 22.3182H104.844C106.211 22.3182 107.523 22.8615 108.49 23.8284C109.457 24.7954 110 26.1069 110 27.4745C110 28.842 109.457 30.1535 108.49 31.1205C107.523 32.0875 106.211 32.6307 104.844 32.6307H82.0188ZM72.1875 27.4745C72.1875 22.9161 70.3767 18.5443 67.1534 15.3211C63.9301 12.0978 59.5584 10.287 55 10.287C50.4416 10.287 46.0699 12.0978 42.8466 15.3211C39.6233 18.5443 37.8125 22.9161 37.8125 27.4745C37.8125 32.0329 39.6233 36.4046 42.8466 39.6279C46.0699 42.8511 50.4416 44.662 55 44.662C59.5584 44.662 63.9301 42.8511 67.1534 39.6279C70.3767 36.4046 72.1875 32.0329 72.1875 27.4745Z" fill="white"/>
<path d="M82.0188 32.6307C80.8111 38.9112 77.4531 44.5748 72.5222 48.6479C67.5914 52.7209 61.3956 54.9489 55 54.9489C48.6044 54.9489 42.4086 52.7209 37.4778 48.6479C32.5469 44.5748 29.189 38.9112 27.9813 32.6307H5.15625C3.78873 32.6307 2.47722 32.0875 1.51023 31.1205C0.543246 30.1535 0 28.842 0 27.4745C0 26.1069 0.543246 24.7954 1.51023 23.8284C2.47722 22.8615 3.78873 22.3182 5.15625 22.3182H27.9813C29.189 16.0377 32.5469 10.3741 37.4778 6.30107C42.4086 2.22803 48.6044 0 55 0C61.3956 0 67.5914 2.22803 72.5222 6.30107C77.4531 10.3741 80.8111 16.0377 82.0188 22.3182H104.844C106.211 22.3182 107.523 22.8615 108.49 23.8284C109.457 24.7954 110 26.1069 110 27.4745C110 28.842 109.457 30.1535 108.49 31.1205C107.523 32.0875 106.211 32.6307 104.844 32.6307H82.0188ZM72.1875 27.4745C72.1875 22.9161 70.3767 18.5443 67.1534 15.3211C63.9301 12.0978 59.5584 10.287 55 10.287C50.4416 10.287 46.0699 12.0978 42.8466 15.3211C39.6233 18.5443 37.8125 22.9161 37.8125 27.4745C37.8125 32.0329 39.6233 36.4046 42.8466 39.6279C46.0699 42.8511 50.4416 44.662 55 44.662C59.5584 44.662 63.9301 42.8511 67.1534 39.6279C70.3767 36.4046 72.1875 32.0329 72.1875 27.4745Z" fill="#164194"/>
<path d="M389.019 32.6307C387.811 38.9112 384.453 44.5748 379.522 48.6479C374.591 52.7209 368.396 54.9489 362 54.9489C355.604 54.9489 349.409 52.7209 344.478 48.6479C339.547 44.5748 336.189 38.9112 334.981 32.6307H312.156C310.789 32.6307 309.477 32.0875 308.51 31.1205C307.543 30.1535 307 28.842 307 27.4745C307 26.1069 307.543 24.7954 308.51 23.8284C309.477 22.8615 310.789 22.3182 312.156 22.3182H334.981C336.189 16.0377 339.547 10.3741 344.478 6.30107C349.409 2.22803 355.604 0 362 0C368.396 0 374.591 2.22803 379.522 6.30107C384.453 10.3741 387.811 16.0377 389.019 22.3182H411.844C413.211 22.3182 414.523 22.8615 415.49 23.8284C416.457 24.7954 417 26.1069 417 27.4745C417 28.842 416.457 30.1535 415.49 31.1205C414.523 32.0875 413.211 32.6307 411.844 32.6307H389.019ZM379.188 27.4745C379.188 22.9161 377.377 18.5443 374.153 15.3211C370.93 12.0978 366.558 10.287 362 10.287C357.442 10.287 353.07 12.0978 349.847 15.3211C346.623 18.5443 344.812 22.9161 344.812 27.4745C344.812 32.0329 346.623 36.4046 349.847 39.6279C353.07 42.8511 357.442 44.662 362 44.662C366.558 44.662 370.93 42.8511 374.153 39.6279C377.377 36.4046 379.188 32.0329 379.188 27.4745Z" fill="#164194"/>
<path d="M490.019 32.6307C488.811 38.9112 485.453 44.5748 480.522 48.6479C475.591 52.7209 469.396 54.9489 463 54.9489C456.604 54.9489 450.409 52.7209 445.478 48.6479C440.547 44.5748 437.189 38.9112 435.981 32.6307H413.156C411.789 32.6307 410.477 32.0875 409.51 31.1205C408.543 30.1535 408 28.842 408 27.4745C408 26.1069 408.543 24.7954 409.51 23.8284C410.477 22.8615 411.789 22.3182 413.156 22.3182H435.981C437.189 16.0377 440.547 10.3741 445.478 6.30107C450.409 2.22803 456.604 0 463 0C469.396 0 475.591 2.22803 480.522 6.30107C485.453 10.3741 488.811 16.0377 490.019 22.3182H512.844C514.211 22.3182 515.523 22.8615 516.49 23.8284C517.457 24.7954 518 26.1069 518 27.4745C518 28.842 517.457 30.1535 516.49 31.1205C515.523 32.0875 514.211 32.6307 512.844 32.6307H490.019ZM480.188 27.4745C480.188 22.9161 478.377 18.5443 475.153 15.3211C471.93 12.0978 467.558 10.287 463 10.287C458.442 10.287 454.07 12.0978 450.847 15.3211C447.623 18.5443 445.812 22.9161 445.812 27.4745C445.812 32.0329 447.623 36.4046 450.847 39.6279C454.07 42.8511 458.442 44.662 463 44.662C467.558 44.662 471.93 42.8511 475.153 39.6279C478.377 36.4046 480.188 32.0329 480.188 27.4745Z" fill="white"/>
<path d="M490.019 32.6307C488.811 38.9112 485.453 44.5748 480.522 48.6479C475.591 52.7209 469.396 54.9489 463 54.9489C456.604 54.9489 450.409 52.7209 445.478 48.6479C440.547 44.5748 437.189 38.9112 435.981 32.6307H413.156C411.789 32.6307 410.477 32.0875 409.51 31.1205C408.543 30.1535 408 28.842 408 27.4745C408 26.1069 408.543 24.7954 409.51 23.8284C410.477 22.8615 411.789 22.3182 413.156 22.3182H435.981C437.189 16.0377 440.547 10.3741 445.478 6.30107C450.409 2.22803 456.604 0 463 0C469.396 0 475.591 2.22803 480.522 6.30107C485.453 10.3741 488.811 16.0377 490.019 22.3182H512.844C514.211 22.3182 515.523 22.8615 516.49 23.8284C517.457 24.7954 518 26.1069 518 27.4745C518 28.842 517.457 30.1535 516.49 31.1205C515.523 32.0875 514.211 32.6307 512.844 32.6307H490.019ZM480.188 27.4745C480.188 22.9161 478.377 18.5443 475.153 15.3211C471.93 12.0978 467.558 10.287 463 10.287C458.442 10.287 454.07 12.0978 450.847 15.3211C447.623 18.5443 445.812 22.9161 445.812 27.4745C445.812 32.0329 447.623 36.4046 450.847 39.6279C454.07 42.8511 458.442 44.662 463 44.662C467.558 44.662 471.93 42.8511 475.153 39.6279C478.377 36.4046 480.188 32.0329 480.188 27.4745Z" fill="url(#paint0_linear_369_503)"/>
<defs>
<linearGradient id="paint0_linear_369_503" x1="518" y1="27.4745" x2="408" y2="27.4745" gradientUnits="userSpaceOnUse">
<stop stop-color="#164194" stop-opacity="0"/>
<stop offset="0.524038" stop-color="#164194"/>
</linearGradient>
</defs>
</svg>
